<svg width="8" height="7" viewBox="0 0 8 7" fill="none" xmlns="http://www.w3.org/2000/svg">
<path d="M4.66602 0.666626C3.95877 0.666626 3.28049 0.947578 2.7804 1.44767C2.2803 1.94777 1.99935 2.62605 1.99935 3.33329C1.99935 4.04054 2.2803 4.71881 2.7804 5.21891C3.28049 5.71901 3.95877 5.99996 4.66602 5.99996C5.37326 5.99996 6.05154 5.71901 6.55163 5.21891C7.05173 4.71881 7.33268 4.04054 7.33268 3.33329C7.33268 2.62605 7.05173 1.94777 6.55163 1.44767C6.05154 0.947578 5.37326 0.666626 4.66602 0.666626ZM1.64268 1.93996C1.33792 2.18995 1.09229 2.50431 0.92343 2.86048C0.754566 3.21665 0.666658 3.60579 0.666016 3.99996C0.666016 4.7072 0.946967 5.38548 1.44706 5.88558C1.94716 6.38567 2.62544 6.66663 3.33268 6.66663C3.54602 6.66663 3.75602 6.63996 3.95935 6.58996C3.37268 6.45996 2.83268 6.16663 2.38935 5.76329C2.07014 5.5925 1.80326 5.33829 1.61717 5.02775C1.43108 4.71721 1.33276 4.36199 1.33268 3.99996C1.33268 3.89996 1.34268 3.80329 1.35602 3.70329C1.34268 3.57996 1.33268 3.45663 1.33268 3.33329C1.33268 2.85329 1.43935 2.37663 1.64268 1.93996Z" fill="black"/>
</svg>
